# Blender v3.0.0 OBJ File: 'simple_room.blend'
# www.blender.org
mtllib simple_room.mtl
o Cube_Cube.003
v 5.000000 -3.700000 5.000000
v 5.000000 1.300000 5.000000
v -5.000000 -3.700000 5.000000
v -5.000000 1.300000 5.000000
v 5.000000 -3.700000 -5.000000
v 5.000000 1.300000 -5.000000
v -5.000000 -3.700000 -5.000000
v -5.000000 1.300000 -5.000000
v 4.000000 -3.700000 5.000000
v 4.000000 -0.700000 5.000000
v -4.000000 -3.700000 5.000000
v -4.000000 -0.700000 5.000000
v 4.000000 -3.700000 4.000000
v 4.000000 -0.700000 4.246269
v -4.000000 -3.700000 4.000000
v -4.000000 -0.700000 4.246269
v 4.000000 -3.700000 -4.000000
v 4.000000 -0.700000 -3.500000
v -4.000000 -3.700000 -4.000000
v -4.000000 -0.700000 -3.500000
v 4.000000 -3.700000 -5.000000
v 4.000000 -0.700000 -5.000000
v -4.000000 -3.700000 -5.000000
v -4.000000 -0.700000 -5.000000
vt 0.375000 0.250000
vt 0.625000 0.250000
vt 0.625000 0.500000
vt 0.375000 0.500000
vt 0.625000 0.750000
vt 0.375000 0.750000
vt 0.625000 1.000000
vt 0.375000 1.000000
vt 0.875000 0.500000
vt 0.875000 0.750000
vt 0.375000 0.000000
vt 0.625000 0.000000
vt 0.625000 0.250000
vt 0.375000 0.250000
vt 0.625000 0.500000
vt 0.375000 0.500000
vt 0.375000 0.750000
vt 0.625000 0.750000
vt 0.625000 1.000000
vt 0.375000 1.000000
vt 0.875000 0.500000
vt 0.875000 0.750000
vt 0.375000 0.000000
vt 0.625000 0.000000
vt 0.625000 0.250000
vt 0.375000 0.250000
vt 0.375000 0.500000
vt 0.625000 0.500000
vt 0.625000 0.750000
vt 0.375000 0.750000
vt 0.125000 0.500000
vt 0.125000 0.750000
vt 0.625000 1.000000
vt 0.375000 1.000000
vt 0.875000 0.500000
vt 0.875000 0.750000
vn -1.0000 -0.0000 0.0000
vn 0.0000 0.0818 -0.9966
vn 1.0000 0.0000 0.0000
vn 0.0000 1.0000 0.0000
vn 0.0000 -0.1644 0.9864
vn 0.5773 -0.5773 0.5773
vn 0.5773 0.5773 0.5773
vn -0.5773 0.5773 0.5773
vn -0.5773 -0.5773 0.5773
vn -0.5773 -0.5773 -0.5773
vn -0.5773 0.5773 -0.5773
vn 0.5773 0.5773 -0.5773
vn 0.5773 -0.5773 -0.5773
usemtl Material
s off
f 11/1/1 12/2/1 16/3/1 15/4/1
f 15/4/2 16/3/2 14/5/2 13/6/2
f 13/6/3 14/5/3 10/7/3 9/8/3
f 16/3/4 12/9/4 10/10/4 14/5/4
f 17/11/5 18/12/5 20/13/5 19/14/5
f 19/14/1 20/13/1 24/15/1 23/16/1
f 21/17/3 22/18/3 18/19/3 17/20/3
f 24/15/4 20/21/4 18/22/4 22/18/4
s 1
f 1/23/6 2/24/7 4/25/8 3/26/9
f 7/27/10 8/28/11 6/29/12 5/30/13
f 3/31/9 7/27/10 5/30/13 1/32/6
usemtl Light
f 5/30/13 6/29/12 2/33/7 1/34/6
f 8/28/11 4/35/8 2/36/7 6/29/12
usemtl Dark
f 3/26/9 4/25/8 8/28/11 7/27/10
